<svg width="91" height="84" viewBox="0 0 91 84" fill="none" xmlns="http://www.w3.org/2000/svg">
<path fill-rule="evenodd" clip-rule="evenodd" d="M89.3112 25.3419C89.3112 22.9616 87.5359 20.959 85.1803 20.6834C75.7325 19.5772 52.4932 16.8573 41.1609 15.5302C39.5311 15.3385 37.8958 15.8569 36.6698 16.9522C35.4438 18.0475 34.7417 19.6173 34.7417 21.2657C34.7417 26.0977 34.7417 32.6674 34.7417 37.4994C34.7417 39.1459 35.4438 40.7158 36.6698 41.8111C37.8958 42.9082 39.5311 43.4248 41.1609 43.2331C52.4932 41.9078 75.7325 39.1861 85.1803 38.0799C87.5359 37.8042 89.3112 35.8017 89.3112 33.4213C89.3112 30.946 89.3112 27.8172 89.3112 25.3419Z" stroke="#7A7A7A" stroke-width="3" stroke-miterlimit="2" stroke-linecap="round" stroke-linejoin="round"/>
<path d="M58.3885 36.6834L78.3973 33.9452" stroke="#7A7A7A" stroke-width="3" stroke-miterlimit="2" stroke-linecap="round" stroke-linejoin="round"/>
<path d="M34.7417 36.6834H22.5691C20.2499 36.6834 18.3709 38.5709 18.3709 40.8965C18.3709 41.1302 18.3709 41.3638 18.3709 41.5975C18.3709 43.9249 16.4918 45.8106 14.1726 45.8106H6.19821C3.87901 45.8106 2 43.9249 2 41.5975C2 39.7538 2 37.4793 2 35.1427C2 31.678 3.37151 28.3557 5.81259 25.906C8.25367 23.4562 11.5642 22.0799 15.0167 22.0799H26.5563" stroke="#7A7A7A" stroke-width="3" stroke-miterlimit="2" stroke-linecap="round" stroke-linejoin="round"/>
<path fill-rule="evenodd" clip-rule="evenodd" d="M9.09404 59.6402C9.56697 58.9812 10.3255 58.5887 11.1349 58.5887C11.9444 58.5887 12.7047 58.9794 13.1777 59.6402C15.8679 63.1103 20.2699 69.3205 20.2699 72.8326C20.2699 77.8928 16.1772 82 11.1349 82C6.09271 82 2 77.8928 2 72.8326C2 69.3205 6.40194 63.1103 9.09404 59.6402Z" stroke="#7A7A7A" stroke-width="3" stroke-miterlimit="2" stroke-linecap="round" stroke-linejoin="round"/>
<path d="M9.5597 77.3926C9.5597 77.3926 7.69706 76.8249 6.49835 74.3222" stroke="#7A7A7A" stroke-width="3" stroke-miterlimit="2" stroke-linecap="round" stroke-linejoin="round"/>
<path d="M51.1125 14.7781V2" stroke="#7A7A7A" stroke-width="3" stroke-miterlimit="2" stroke-linecap="round" stroke-linejoin="round"/>
<path d="M36.5607 2H62.0264" stroke="#7A7A7A" stroke-width="3" stroke-miterlimit="2" stroke-linecap="round" stroke-linejoin="round"/>
</svg>
