<svg width="25" height="28" viewBox="0 0 25 28" fill="none" xmlns="http://www.w3.org/2000/svg">
<path d="M8.64585 27.8829V24.6217C6.15943 23.8093 4.12462 22.3383 2.54143 20.2087C0.958269 18.079 0.166687 15.6365 0.166687 12.8813C0.166687 11.1716 0.488356 9.56915 1.13169 8.07394C1.77506 6.57872 2.65559 5.27227 3.7733 4.15456C4.89101 3.03685 6.19747 2.15631 7.69268 1.51295C9.18789 0.869613 10.7775 0.547943 12.4615 0.547943C14.1652 0.547943 15.7662 0.869613 17.2643 1.51295C18.7625 2.15631 20.072 3.03685 21.1927 4.15456C22.3133 5.27227 23.2003 6.57872 23.8535 8.07394C24.5067 9.56915 24.8334 11.1716 24.8334 12.8813C24.8334 15.6168 24.0403 18.0464 22.4541 20.1701C20.868 22.2938 18.8347 23.7649 16.3542 24.5831V27.8829H14.8125V24.9893C14.4172 25.0802 14.0268 25.1405 13.6414 25.1701C13.256 25.1998 12.8627 25.2146 12.4615 25.2146C12.0662 25.2146 11.6822 25.1983 11.3097 25.1657C10.9371 25.1331 10.563 25.0743 10.1875 24.9893V27.8829H8.64585ZM12.5 23.75C15.4806 23.75 18.0243 22.6966 20.1313 20.5896C22.2382 18.4827 23.2917 15.9389 23.2917 12.9584C23.2917 9.9778 22.2382 7.43405 20.1313 5.32711C18.0243 3.22017 15.4806 2.16669 12.5 2.16669C9.51946 2.16669 6.97571 3.22017 4.86877 5.32711C2.76183 7.43405 1.70835 9.9778 1.70835 12.9584C1.70835 15.9389 2.76183 18.4827 4.86877 20.5896C6.97571 22.6966 9.51946 23.75 12.5 23.75ZM7.10419 9.10419H17.8959V7.56253H7.10419V9.10419ZM11.3438 21.1114L14.7236 17.7316L12.7965 15.8045L14.8718 13.7292L13.6563 12.5136L10.2764 15.8935L12.2035 17.8205L10.1282 19.8959L11.3438 21.1114Z" fill="#4DAA37"/>
</svg>
