<svg width="29" height="31" viewBox="0 0 29 31" fill="none" xmlns="http://www.w3.org/2000/svg">
<path d="M11.4211 31C8.25647 31 5.56181 29.9091 3.33707 27.7272C1.11236 25.5454 0 22.8892 0 19.7587C0 18.2645 0.301733 16.8351 0.9052 15.4702C1.50867 14.1053 2.31766 12.8874 3.33217 11.8164L11.4211 3.89066L19.5099 11.8164C20.5244 12.8874 21.3334 14.1057 21.9369 15.4714C22.5404 16.8372 22.8421 18.2682 22.8421 19.7646C22.8421 22.8998 21.7297 25.5562 19.505 27.7337C17.2803 29.9112 14.5856 31 11.4211 31ZM11.4211 29.3684C14.1404 29.3684 16.4518 28.4423 18.3553 26.59C20.2588 24.7378 21.2105 22.4632 21.2105 19.7663C21.2105 18.4859 20.9658 17.2669 20.4763 16.1091C19.9868 14.9513 19.2798 13.9366 18.3553 13.0649L11.4211 6.2L4.48684 13.0649C3.56228 13.9366 2.85526 14.9513 2.36579 16.1091C1.87632 17.2669 1.63158 18.4859 1.63158 19.7663C1.63158 22.4632 2.58333 24.7378 4.48684 26.59C6.39035 28.4423 8.70175 29.3684 11.4211 29.3684ZM24.4423 13.1154C24.4423 11.2938 23.8048 9.74545 22.5297 8.47034C21.2546 7.19523 19.7062 6.55768 17.8846 6.55768C19.7062 6.55768 21.2546 5.92013 22.5297 4.64502C23.8048 3.36992 24.4423 1.82158 24.4423 0C24.4423 1.82158 25.0799 3.36992 26.355 4.64502C27.6301 5.92013 29.1784 6.55768 31 6.55768C29.1784 6.55768 27.6301 7.19523 26.355 8.47034C25.0799 9.74545 24.4423 11.2938 24.4423 13.1154Z" fill="#4DAA37"/>
</svg>
