<svg width="31" height="31" viewBox="0 0 31 31" fill="none" xmlns="http://www.w3.org/2000/svg">
<path d="M15.5 19.9286C16.7302 19.9286 17.7758 19.498 18.6369 18.6369C19.498 17.7758 19.9286 16.7302 19.9286 15.5C19.9286 14.2698 19.498 13.2242 18.6369 12.3631C17.7758 11.502 16.7302 11.0714 15.5 11.0714C14.2698 11.0714 13.2242 11.502 12.3631 12.3631C11.502 13.2242 11.0714 14.2698 11.0714 15.5C11.0714 16.7302 11.502 17.7758 12.3631 18.6369C13.2242 19.498 14.2698 19.9286 15.5 19.9286ZM15.5 21.4048C13.8554 21.4048 12.4601 20.8318 11.3142 19.6858C10.1682 18.5399 9.59524 17.1446 9.59524 15.5C9.59524 13.8554 10.1682 12.4601 11.3142 11.3142C12.4601 10.1682 13.8554 9.59524 15.5 9.59524C17.1446 9.59524 18.5399 10.1682 19.6858 11.3142C20.8318 12.4601 21.4048 13.8554 21.4048 15.5C21.4048 17.1446 20.8318 18.5399 19.6858 19.6858C18.5399 20.8318 17.1446 21.4048 15.5 21.4048ZM0.738095 16.2381C0.528968 16.2381 0.353671 16.1673 0.212202 16.0256C0.0707341 15.884 0 15.7084 0 15.499C0 15.2896 0.0707341 15.1144 0.212202 14.9734C0.353671 14.8324 0.528968 14.7619 0.738095 14.7619H4.42857C4.6377 14.7619 4.813 14.8327 4.95446 14.9744C5.09593 15.116 5.16667 15.2916 5.16667 15.501C5.16667 15.7104 5.09593 15.8856 4.95446 16.0266C4.813 16.1676 4.6377 16.2381 4.42857 16.2381H0.738095ZM26.5714 16.2381C26.3623 16.2381 26.187 16.1673 26.0455 16.0256C25.9041 15.884 25.8333 15.7084 25.8333 15.499C25.8333 15.2896 25.9041 15.1144 26.0455 14.9734C26.187 14.8324 26.3623 14.7619 26.5714 14.7619H30.2619C30.471 14.7619 30.6463 14.8327 30.7878 14.9744C30.9293 15.116 31 15.2916 31 15.501C31 15.7104 30.9293 15.8856 30.7878 16.0266C30.6463 16.1676 30.471 16.2381 30.2619 16.2381H26.5714ZM15.499 5.16667C15.2896 5.16667 15.1144 5.09593 14.9734 4.95446C14.8324 4.813 14.7619 4.6377 14.7619 4.42857V0.738095C14.7619 0.528968 14.8327 0.353671 14.9744 0.212202C15.116 0.0707341 15.2916 0 15.501 0C15.7104 0 15.8856 0.0707341 16.0266 0.212202C16.1676 0.353671 16.2381 0.528968 16.2381 0.738095V4.42857C16.2381 4.6377 16.1673 4.813 16.0256 4.95446C15.884 5.09593 15.7084 5.16667 15.499 5.16667ZM15.499 31C15.2896 31 15.1144 30.9293 14.9734 30.7878C14.8324 30.6463 14.7619 30.471 14.7619 30.2619V26.5714C14.7619 26.3623 14.8327 26.187 14.9744 26.0455C15.116 25.9041 15.2916 25.8333 15.501 25.8333C15.7104 25.8333 15.8856 25.9041 16.0266 26.0455C16.1676 26.187 16.2381 26.3623 16.2381 26.5714V30.2619C16.2381 30.471 16.1673 30.6463 16.0256 30.7878C15.884 30.9293 15.7084 31 15.499 31ZM7.17654 8.16448L5.05027 6.10349C4.90644 5.96532 4.83594 5.79593 4.83877 5.59532C4.84162 5.3947 4.915 5.21302 5.0589 5.05027C5.2159 4.88752 5.38998 4.80614 5.58114 4.80614C5.77229 4.80614 5.9464 4.88752 6.10349 5.05027L8.19286 7.14816C8.34995 7.31093 8.42849 7.48505 8.42849 7.67051C8.42849 7.85599 8.35468 8.03011 8.20707 8.19286C8.05945 8.35561 7.89148 8.43083 7.70317 8.41853C7.51485 8.40623 7.33931 8.32154 7.17654 8.16448ZM24.8965 25.9497L22.8071 23.8518C22.6501 23.6891 22.5715 23.5135 22.5715 23.3252C22.5715 23.1369 22.6501 22.9642 22.8071 22.8071C22.9358 22.6444 23.0967 22.5692 23.2897 22.5815C23.4828 22.5938 23.6607 22.6785 23.8235 22.8355L25.9497 24.8965C26.0936 25.0347 26.1641 25.2041 26.1612 25.4047C26.1584 25.6053 26.085 25.787 25.9411 25.9497C25.7841 26.1125 25.61 26.1939 25.4189 26.1939C25.2277 26.1939 25.0536 26.1125 24.8965 25.9497ZM22.8071 8.20707C22.6444 8.05945 22.5692 7.89148 22.5815 7.70317C22.5938 7.51486 22.6785 7.33931 22.8355 7.17654L24.8965 5.05027C25.0347 4.90644 25.2041 4.83594 25.4047 4.83877C25.6053 4.84162 25.787 4.915 25.9497 5.05891C26.1125 5.2159 26.1939 5.38998 26.1939 5.58114C26.1939 5.77229 26.1125 5.9464 25.9497 6.10349L23.8518 8.19286C23.6891 8.34995 23.515 8.42849 23.3295 8.42849C23.144 8.42849 22.9699 8.35468 22.8071 8.20707ZM5.05027 25.9559C4.88752 25.789 4.80614 25.61 4.80614 25.4189C4.80614 25.2277 4.88752 25.0536 5.05027 24.8965L7.14816 22.8071C7.31093 22.6501 7.48646 22.5715 7.67475 22.5715C7.86306 22.5715 8.03577 22.6501 8.19286 22.8071C8.33669 22.9358 8.40245 23.0967 8.39015 23.2897C8.37785 23.4828 8.30262 23.6607 8.16448 23.8235L6.10349 25.9497C5.9464 26.1125 5.77229 26.1924 5.58114 26.1896C5.38998 26.1868 5.21302 26.1089 5.05027 25.9559Z" fill="#4DAA37"/>
</svg>
