<svg width="59" height="80" viewBox="0 0 59 80" fill="none" xmlns="http://www.w3.org/2000/svg">
<path d="M37.375 68.8125H21.125V66H37.375V68.8125ZM35.6875 71.1875H22.8125V74H35.6875V71.1875ZM33.75 75.375H24.75V78.1875H33.8125V75.375H33.75ZM31.375 78.25H27.1875V80H31.375V78.25ZM18.5 63.625V53.375C15.1875 50.875 0 38.8125 0 27.75C0 12.5 13.0625 0 29.125 0C45.1875 0 58.25 12.5 58.25 27.8125C58.25 38.8125 43.125 50.875 39.8125 53.375V63.625H18.5ZM29.125 2.875C14.75 2.875 3.0625 14.0625 3.0625 27.8125C3.0625 38.5 20.8125 51.4375 20.9375 51.5625L21.5625 52V60.75H36.75V52L37.375 51.5625C37.5625 51.4375 55.1875 38.5 55.1875 27.8125C55.1875 14.0625 43.5 2.875 29.125 2.875Z" fill="#7A7A7A"/>
</svg>
