<svg width="84" height="84" viewBox="0 0 84 84" fill="none" xmlns="http://www.w3.org/2000/svg">
<path d="M52.3263 40.8479C53.5772 38.5408 55.097 36.362 56.8683 34.3589C60.597 30.1398 64.1103 26.1673 64.1103 26.1673" stroke="#7A7A7A" stroke-width="2.3" stroke-miterlimit="2" stroke-linecap="round" stroke-linejoin="round"/>
<path d="M48.1514 58.8187C48.1514 58.8187 47.3743 51.9598 46.7591 46.5331C46.2836 42.3444 44.3107 38.4547 41.1902 35.5547C34.3376 29.1856 22.6156 18.2933 22.6156 18.2933" stroke="#7A7A7A" stroke-width="2.3" stroke-miterlimit="2" stroke-linecap="round" stroke-linejoin="round"/>
<path d="M41.5348 35.8739C41.5348 35.8739 44.7535 24.4885 38.5763 15.015C33.7414 7.60206 14.3243 3.48939 6.1053 2.05038C5.12316 1.88317 4.11517 2.13651 3.33807 2.74624C2.55925 3.35765 2.08713 4.26463 2.03716 5.24086C1.78215 11.404 2.60749 23.9142 11.9758 33.788C24.9245 47.435 36.4484 42.1316 36.4484 42.1316" stroke="#7A7A7A" stroke-width="2.3" stroke-miterlimit="2" stroke-linecap="round" stroke-linejoin="round"/>
<path d="M54.6059 36.9177C54.6059 36.9177 50.5671 28.4762 54.0959 20.3049C56.7408 14.1823 70.2013 8.68131 76.7817 6.30829C77.7414 5.96543 78.8063 6.05325 79.6937 6.54981C80.581 7.04637 81.2013 7.901 81.3891 8.88567C82.3351 13.9155 82.9192 23.1069 77.321 31.4657C69.0865 43.7598 59.4064 41.1266 59.4064 41.1266" stroke="#7A7A7A" stroke-width="2.3" stroke-miterlimit="2" stroke-linecap="round" stroke-linejoin="round"/>
<path d="M33.6311 28.5302H21.4457" stroke="#7A7A7A" stroke-width="2.3" stroke-miterlimit="2" stroke-linecap="round" stroke-linejoin="round"/>
<path d="M62.1615 77.5546L57.878 82L41.3866 64.8838C37.284 60.6259 37.4805 53.9038 41.8243 49.8823C43.2803 48.5345 45.0188 47.6613 46.8401 47.2543" stroke="#7A7A7A" stroke-width="2.3" stroke-miterlimit="2" stroke-linecap="round" stroke-linejoin="round"/>
<path d="M52.3263 47.4215C54.101 47.9332 55.7672 48.8976 57.1285 50.3113L57.878 51.0899L58.6275 50.3113C62.7301 46.0534 69.5879 45.8608 73.9317 49.8823C78.2755 53.9038 78.472 60.6259 74.3694 64.8838L68.4593 71.0182" stroke="#7A7A7A" stroke-width="2.3" stroke-miterlimit="2" stroke-linecap="round" stroke-linejoin="round"/>
<path d="M69.4639 52.3212C69.4639 52.3212 72.8014 54.049 72.5051 59.7764" stroke="#7A7A7A" stroke-width="2.3" stroke-miterlimit="2" stroke-linecap="round" stroke-linejoin="round"/>
<path d="M21.9816 68.706L19.9708 70.7919L12.2308 62.7591C10.3044 60.761 10.3974 57.606 12.4358 55.7177C14.4742 53.8311 17.6929 53.9207 19.6193 55.9204L19.9708 56.2852L20.3223 55.9204C22.2486 53.9207 25.4673 53.8311 27.5057 55.7177C29.5441 57.606 29.6371 60.761 27.7107 62.7591L24.9366 65.6388" stroke="#7A7A7A" stroke-width="2.3" stroke-miterlimit="2" stroke-linecap="round" stroke-linejoin="round"/>
</svg>
