<svg width="30" height="31" viewBox="0 0 30 31" fill="none" xmlns="http://www.w3.org/2000/svg">
<path d="M20.0457 12.5938C19.5116 12.5938 19.0552 12.4043 18.6764 12.0255C18.2976 11.6467 18.1082 11.1903 18.1082 10.6562C18.1082 10.306 18.1808 9.96632 18.3261 9.63717C18.4714 9.30806 18.6472 9.00253 18.8534 8.72059C19.0595 8.43865 19.2725 8.17536 19.4924 7.93072C19.7122 7.68605 19.8966 7.47676 20.0457 7.30287C20.1947 7.47676 20.3791 7.68605 20.599 7.93072C20.8188 8.17536 21.0318 8.43865 21.238 8.72059C21.4441 9.00253 21.6199 9.30806 21.7652 9.63717C21.9105 9.96632 21.9832 10.306 21.9832 10.6562C21.9832 11.1903 21.7938 11.6467 21.4149 12.0255C21.0362 12.4043 20.5797 12.5938 20.0457 12.5938ZM27.7957 6.78125C27.2616 6.78125 26.8052 6.59184 26.4264 6.21303C26.0476 5.83425 25.8582 5.37782 25.8582 4.84375C25.8582 4.49351 25.9308 4.15382 26.0761 3.82467C26.2214 3.49556 26.3972 3.19003 26.6034 2.90809C26.8095 2.62615 27.0225 2.36286 27.2424 2.11822C27.4622 1.87355 27.6466 1.66426 27.7957 1.49037C27.9447 1.66426 28.1291 1.87355 28.349 2.11822C28.5688 2.36286 28.7818 2.62615 28.988 2.90809C29.1941 3.19003 29.3699 3.49556 29.5152 3.82467C29.6605 4.15382 29.7332 4.49351 29.7332 4.84375C29.7332 5.37782 29.5438 5.83425 29.1649 6.21303C28.7862 6.59184 28.3297 6.78125 27.7957 6.78125ZM27.7957 18.4062C27.2616 18.4062 26.8052 18.2168 26.4264 17.838C26.0476 17.4592 25.8582 17.0028 25.8582 16.4688C25.8582 16.1185 25.9308 15.7788 26.0761 15.4497C26.2214 15.1206 26.3972 14.815 26.6034 14.5331C26.8095 14.2512 27.0225 13.9879 27.2424 13.7432C27.4622 13.4985 27.6466 13.2893 27.7957 13.1154C27.9447 13.2893 28.1291 13.4985 28.349 13.7432C28.5688 13.9879 28.7818 14.2512 28.988 14.5331C29.1941 14.815 29.3699 15.1206 29.5152 15.4497C29.6605 15.7788 29.7332 16.1185 29.7332 16.4688C29.7332 17.0028 29.5438 17.4592 29.1649 17.838C28.7862 18.2168 28.3297 18.4062 27.7957 18.4062ZM7.75 31C5.59143 31 3.76012 30.248 2.25607 28.7439C0.752024 27.2399 0 25.4086 0 23.25C0 21.8987 0.339063 20.6338 1.01719 19.4551C1.69531 18.2765 2.64792 17.3058 3.875 16.5432V3.875C3.875 2.78206 4.2476 1.86299 4.99279 1.11779C5.73799 0.372599 6.65706 0 7.75 0C8.84294 0 9.76201 0.372599 10.5072 1.11779C11.2524 1.86299 11.625 2.78206 11.625 3.875V16.5432C12.8521 17.3058 13.8047 18.2765 14.4828 19.4551C15.1609 20.6338 15.5 21.8987 15.5 23.25C15.5 25.4086 14.748 27.2399 13.2439 28.7439C11.7399 30.248 9.90857 31 7.75 31ZM1.9375 23.25H13.5625C13.5625 22.2887 13.3048 21.3609 12.7893 20.4667C12.2739 19.5725 11.5331 18.7764 10.5668 18.0784L9.6875 17.4375V3.875C9.6875 3.32604 9.50182 2.86589 9.13047 2.49453C8.75911 2.12318 8.29896 1.9375 7.75 1.9375C7.20104 1.9375 6.74088 2.12318 6.36953 2.49453C5.99818 2.86589 5.8125 3.32604 5.8125 3.875V17.4375L4.93317 18.0784C3.9669 18.7764 3.22605 19.5725 2.71061 20.4667C2.1952 21.3609 1.9375 22.2887 1.9375 23.25Z" fill="#4DAA37"/>
</svg>
