<svg width="82" height="82" viewBox="0 0 82 82" fill="none" xmlns="http://www.w3.org/2000/svg">
<path d="M70.4998 81H11.5002C8.71637 80.9966 6.04755 79.8893 4.07911 77.9209C2.11067 75.9524 1.00334 73.2836 1 70.4998V11.5002C1.00334 8.71637 2.11067 6.04755 4.07911 4.07911C6.04755 2.11067 8.71637 1.00334 11.5002 1H17.5071C17.6744 1 17.8348 1.06645 17.9531 1.18473C18.0714 1.30302 18.1378 1.46344 18.1378 1.63072C18.1378 1.79799 18.0714 1.95842 17.9531 2.0767C17.8348 2.19498 17.6744 2.26143 17.5071 2.26143H11.5002C9.05072 2.2641 6.70236 3.23832 4.97034 4.97034C3.23832 6.70236 2.2641 9.05072 2.26143 11.5002V70.4998C2.2641 72.9493 3.23832 75.2976 4.97034 77.0296C6.70236 78.7617 9.05072 79.7359 11.5002 79.7385H70.4998C72.9493 79.7359 75.2976 78.7617 77.0296 77.0296C78.7617 75.2976 79.7359 72.9493 79.7385 70.4998V61.0038C79.7385 60.8365 79.805 60.6761 79.9233 60.5578C80.0416 60.4395 80.202 60.3731 80.3693 60.3731C80.5365 60.3731 80.697 60.4395 80.8153 60.5578C80.9335 60.6761 81 60.8365 81 61.0038V70.4998C80.9966 73.2836 79.8893 75.9524 77.9209 77.9209C75.9524 79.8893 73.2836 80.9966 70.4998 81ZM41 73.8149C33.6297 73.8137 26.4745 71.3311 20.6874 66.767C14.9003 62.2029 10.8185 55.8233 9.09977 48.6562C7.38104 41.4892 8.12549 33.9521 11.2132 27.2598C14.3008 20.5675 19.5519 15.1097 26.12 11.766C32.6882 8.42228 40.1908 7.38743 47.4189 8.82823C54.647 10.269 61.1794 14.1015 65.9635 19.7081C70.7476 25.3147 73.5046 32.3688 73.7902 39.7335C74.0758 47.0983 71.8734 54.3447 67.538 60.3049C67.4941 60.3826 67.4343 60.4501 67.3624 60.5029C67.2906 60.5557 67.2084 60.5927 67.1212 60.6114C67.034 60.6301 66.9438 60.6302 66.8566 60.6115C66.7694 60.5928 66.6871 60.5558 66.6153 60.503C66.5434 60.4501 66.4836 60.3827 66.4397 60.305C66.3958 60.2274 66.3689 60.1413 66.3607 60.0525C66.3526 59.9637 66.3633 59.8742 66.3923 59.7898C66.4213 59.7055 66.4678 59.6283 66.5288 59.5632C71.0306 53.3761 73.1276 45.7623 72.4283 38.1428C71.7291 30.5232 68.2815 23.4183 62.7288 18.1538C57.1761 12.8893 49.8977 9.82497 42.2516 9.5325C34.6056 9.24003 27.1144 11.7394 21.1758 16.5644C15.2371 21.3893 11.2568 28.2101 9.97759 35.754C8.69833 43.2979 10.2075 51.0495 14.2235 57.5625C18.2396 64.0754 24.488 68.9048 31.803 71.1493C39.118 73.3938 46.9998 72.9002 53.9776 69.7606C54.0531 69.7265 54.1347 69.7076 54.2175 69.705C54.3004 69.7024 54.3829 69.7161 54.4604 69.7454C54.538 69.7746 54.609 69.8189 54.6694 69.8756C54.7299 69.9324 54.7785 70.0004 54.8127 70.076C54.8468 70.1515 54.8657 70.233 54.8683 70.3159C54.8709 70.3987 54.8572 70.4813 54.8279 70.5588C54.7986 70.6364 54.7544 70.7074 54.6977 70.7678C54.6409 70.8283 54.5728 70.8769 54.4973 70.911C50.2576 72.8331 45.655 73.8233 41 73.8149ZM80.3693 42.3926C80.202 42.3926 80.0416 42.3262 79.9233 42.2079C79.805 42.0896 79.7385 41.9292 79.7385 41.7619V11.5002C79.7359 9.05072 78.7617 6.70236 77.0296 4.97034C75.2976 3.23832 72.9493 2.2641 70.4998 2.26143H34.3245C34.1572 2.26143 33.9968 2.19498 33.8785 2.0767C33.7602 1.95842 33.6938 1.79799 33.6938 1.63072C33.6938 1.46344 33.7602 1.30302 33.8785 1.18473C33.9968 1.06645 34.1572 1 34.3245 1H70.4998C73.2836 1.00334 75.9524 2.11067 77.9209 4.07911C79.8893 6.04755 80.9966 8.71637 81 11.5002V41.7569C81.0006 41.8401 80.9848 41.9227 80.9534 41.9998C80.922 42.0769 80.8757 42.147 80.817 42.2061C80.7584 42.2652 80.6887 42.3121 80.6118 42.3441C80.5349 42.3761 80.4525 42.3926 80.3693 42.3926Z" fill="#7A7A7A" stroke="#7A7A7A"/>
<path d="M71.5392 14.8758C70.3687 14.8744 69.2465 14.4088 68.4188 13.5812C67.5912 12.7535 67.1256 11.6313 67.1242 10.4607C67.1242 10.2935 67.1907 10.133 67.309 10.0148C67.4273 9.89648 67.5877 9.83002 67.755 9.83002C67.9222 9.83002 68.0827 9.89648 68.2009 10.0148C68.3192 10.133 68.3857 10.2935 68.3857 10.4607C68.3857 11.0845 68.5706 11.6942 68.9171 12.2128C69.2637 12.7314 69.7562 13.1356 70.3324 13.3743C70.9087 13.613 71.5427 13.6754 72.1545 13.5537C72.7662 13.432 73.3281 13.1317 73.7692 12.6907C74.2102 12.2496 74.5106 11.6877 74.6322 11.076C74.7539 10.4642 74.6915 9.83016 74.4528 9.25392C74.2141 8.67768 73.8099 8.18516 73.2913 7.83864C72.7727 7.49212 72.163 7.30716 71.5392 7.30716C71.372 7.30716 71.2115 7.24071 71.0933 7.12243C70.975 7.00415 70.9085 6.84372 70.9085 6.67645C70.9085 6.50917 70.975 6.34875 71.0933 6.23046C71.2115 6.11218 71.372 6.04573 71.5392 6.04573C72.119 6.04573 72.6931 6.15993 73.2288 6.3818C73.7645 6.60368 74.2512 6.92889 74.6611 7.33886C75.0711 7.74883 75.3963 8.23554 75.6182 8.77119C75.8401 9.30684 75.9543 9.88095 75.9543 10.4607C75.9543 11.0405 75.8401 11.6146 75.6182 12.1503C75.3963 12.6859 75.0711 13.1727 74.6611 13.5826C74.2512 13.9926 73.7645 14.3178 73.2288 14.5397C72.6931 14.7616 72.119 14.8758 71.5392 14.8758Z" fill="#7A7A7A" stroke="#7A7A7A"/>
<path d="M71.5392 75.9543C70.3687 75.9529 69.2465 75.4873 68.4188 74.6597C67.5912 73.832 67.1256 72.7098 67.1242 71.5392C67.1242 71.372 67.1907 71.2115 67.309 71.0933C67.4273 70.975 67.5877 70.9085 67.755 70.9085C67.9222 70.9085 68.0827 70.975 68.2009 71.0933C68.3192 71.2115 68.3857 71.372 68.3857 71.5392C68.3857 72.163 68.5706 72.7727 68.9171 73.2913C69.2637 73.8099 69.7562 74.2141 70.3324 74.4528C70.9087 74.6915 71.5427 74.7539 72.1545 74.6322C72.7662 74.5106 73.3281 74.2102 73.7692 73.7692C74.2102 73.3281 74.5106 72.7662 74.6322 72.1545C74.7539 71.5427 74.6915 70.9087 74.4528 70.3324C74.2141 69.7562 73.8099 69.2637 73.2913 68.9171C72.7727 68.5706 72.163 68.3857 71.5392 68.3857C71.372 68.3857 71.2115 68.3192 71.0933 68.2009C70.975 68.0827 70.9085 67.9222 70.9085 67.755C70.9085 67.5877 70.975 67.4273 71.0933 67.309C71.2115 67.1907 71.372 67.1242 71.5392 67.1242C72.7102 67.1242 73.8332 67.5894 74.6611 68.4174C75.4891 69.2453 75.9543 70.3683 75.9543 71.5392C75.9543 72.7102 75.4891 73.8332 74.6611 74.6611C73.8332 75.4891 72.7102 75.9543 71.5392 75.9543Z" fill="#7A7A7A" stroke="#7A7A7A"/>
<path d="M10.4734 75.9543C9.30284 75.9529 8.18064 75.4873 7.35295 74.6597C6.52527 73.832 6.05969 72.7098 6.05835 71.5392C6.05835 71.372 6.1248 71.2115 6.24308 71.0933C6.36136 70.975 6.52179 70.9085 6.68907 70.9085C6.85634 70.9085 7.01677 70.975 7.13505 71.0933C7.25333 71.2115 7.31978 71.372 7.31978 71.5392C7.31978 72.163 7.50473 72.7727 7.85125 73.2913C8.19777 73.8099 8.6903 74.2141 9.26654 74.4528C9.84278 74.6915 10.4769 74.7539 11.0886 74.6322C11.7003 74.5106 12.2622 74.2102 12.7033 73.7692C13.1443 73.3281 13.4447 72.7662 13.5663 72.1545C13.688 71.5427 13.6256 70.9087 13.3869 70.3324C13.1482 69.7562 12.744 69.2637 12.2254 68.9171C11.7068 68.5706 11.0971 68.3857 10.4734 68.3857C10.3061 68.3857 10.1457 68.3192 10.0274 68.2009C9.9091 68.0827 9.84264 67.9222 9.84264 67.755C9.84264 67.5877 9.9091 67.4273 10.0274 67.309C10.1457 67.1907 10.3061 67.1242 10.4734 67.1242C11.6443 67.1242 12.7673 67.5894 13.5952 68.4174C14.4232 69.2453 14.8884 70.3683 14.8884 71.5392C14.8884 72.7102 14.4232 73.8332 13.5952 74.6611C12.7673 75.4891 11.6443 75.9543 10.4734 75.9543Z" fill="#7A7A7A" stroke="#7A7A7A"/>
<path d="M10.4734 14.8758C9.30284 14.8744 8.18064 14.4088 7.35295 13.5812C6.52527 12.7535 6.05969 11.6313 6.05835 10.4607C6.05835 10.2935 6.1248 10.133 6.24308 10.0148C6.36136 9.89648 6.52179 9.83002 6.68907 9.83002C6.85634 9.83002 7.01677 9.89648 7.13505 10.0148C7.25333 10.133 7.31978 10.2935 7.31978 10.4607C7.31978 11.0845 7.50473 11.6942 7.85125 12.2128C8.19777 12.7314 8.6903 13.1356 9.26654 13.3743C9.84278 13.613 10.4769 13.6754 11.0886 13.5537C11.7003 13.432 12.2622 13.1317 12.7033 12.6907C13.1443 12.2496 13.4447 11.6877 13.5663 11.076C13.688 10.4642 13.6256 9.83016 13.3869 9.25392C13.1482 8.67768 12.744 8.18516 12.2254 7.83864C11.7068 7.49212 11.0971 7.30716 10.4734 7.30716C10.3061 7.30716 10.1457 7.24071 10.0274 7.12243C9.9091 7.00415 9.84264 6.84372 9.84264 6.67645C9.84264 6.50917 9.9091 6.34875 10.0274 6.23046C10.1457 6.11218 10.3061 6.04573 10.4734 6.04573C11.0531 6.04573 11.6273 6.15993 12.1629 6.3818C12.6986 6.60368 13.1853 6.92889 13.5952 7.33886C14.0052 7.74883 14.3304 8.23554 14.5523 8.77119C14.7742 9.30684 14.8884 9.88095 14.8884 10.4607C14.8884 11.0405 14.7742 11.6146 14.5523 12.1503C14.3304 12.6859 14.0052 13.1727 13.5952 13.5826C13.1853 13.9926 12.6986 14.3178 12.1629 14.5397C11.6273 14.7616 11.0531 14.8758 10.4734 14.8758Z" fill="#7A7A7A" stroke="#7A7A7A"/>
<path d="M47.3323 32.1296C47.1874 32.1291 47.047 32.0786 46.9349 31.9867C46.8228 31.8948 46.7458 31.7671 46.7168 31.625C46.6562 31.3526 45.2434 24.8764 45.8085 20.971C46.1844 18.3951 48.8208 16.7225 50.9426 15.7714C51.0092 15.7445 51.0657 15.6975 51.1042 15.6368C51.1427 15.5762 51.1611 15.505 51.157 15.4333C51.1578 15.3589 51.135 15.2861 51.092 15.2254C51.0489 15.1647 50.9878 15.1191 50.9173 15.0952C47.7531 13.8803 44.3919 13.2594 41.0025 13.2636C40.4979 13.2636 39.9555 13.2788 39.4106 13.309C38.4862 13.3609 37.565 13.4594 36.6505 13.6042C36.4044 13.6435 36.1786 13.7644 36.0093 13.9474C35.84 14.1304 35.7371 14.3649 35.7171 14.6134C35.6717 15.1331 35.6515 15.7108 35.6591 16.3264C35.6604 16.4092 35.6454 16.4915 35.6149 16.5685C35.5845 16.6456 35.5391 16.7158 35.4815 16.7753C35.4239 16.8349 35.3551 16.8824 35.279 16.9153C35.203 16.9483 35.1213 16.9659 35.0384 16.9672C34.8727 16.9666 34.7137 16.9009 34.5958 16.7844C34.4779 16.6679 34.4104 16.5098 34.4077 16.344C34.4077 15.6856 34.4077 15.065 34.4708 14.4973C34.5187 13.9712 34.7408 13.4762 35.1018 13.0905C35.4628 12.7049 35.9421 12.4506 36.4639 12.368C37.4049 12.2192 38.3762 12.1157 39.35 12.0602C39.9177 12.03 40.4777 12.0123 41.0126 12.0123C44.5563 12.0091 48.0703 12.6582 51.379 13.9271C51.6813 14.0418 51.9425 14.2439 52.1294 14.5077C52.3164 14.7714 52.4205 15.0849 52.4285 15.4081C52.4406 15.73 52.355 16.0481 52.183 16.3205C52.011 16.5929 51.7606 16.8069 51.4648 16.9344C49.6206 17.7543 47.3601 19.1545 47.0649 21.1703C46.5326 24.8461 47.9429 31.3071 47.958 31.3702C47.977 31.4514 47.9796 31.5356 47.9656 31.6178C47.9517 31.7 47.9216 31.7787 47.877 31.8491C47.8323 31.9196 47.7742 31.9804 47.7058 32.0281C47.6374 32.0759 47.5602 32.1095 47.4787 32.1271C47.4301 32.1335 47.3811 32.1343 47.3323 32.1296Z" fill="#7A7A7A" stroke="#7A7A7A"/>
<path d="M38.0129 30.6108C37.8839 30.6108 37.7581 30.5711 37.6525 30.4971C37.5468 30.423 37.4666 30.3183 37.4225 30.1971C36.701 28.2242 36.098 26.3043 35.6313 24.4929C35.5936 24.3324 35.6202 24.1635 35.7055 24.0223C35.7908 23.8812 35.9279 23.7791 36.0876 23.7379C36.2472 23.6966 36.4167 23.7196 36.5596 23.8017C36.7026 23.8839 36.8077 24.0188 36.8524 24.1775C37.3115 25.9435 37.8994 27.8281 38.6058 29.7632C38.6347 29.841 38.6479 29.9238 38.6446 30.0067C38.6414 30.0897 38.6217 30.1712 38.5867 30.2465C38.5518 30.3218 38.5022 30.3894 38.441 30.4455C38.3797 30.5015 38.308 30.5448 38.2299 30.573C38.1602 30.598 38.0868 30.6108 38.0129 30.6108Z" fill="#7A7A7A" stroke="#7A7A7A"/>
<path d="M16.0237 47.6023C15.4131 47.6023 14.9035 47.5771 14.4847 47.5393C13.9586 47.4913 13.4636 47.2692 13.0779 46.9083C12.6923 46.5473 12.438 46.068 12.3554 45.5462C12.2066 44.6052 12.1031 43.6339 12.0476 42.66C12.0148 42.0924 11.9997 41.5323 11.9997 40.9975C11.9965 37.4538 12.6456 33.9397 13.9146 30.631C14.0289 30.3286 14.231 30.0671 14.4948 29.8802C14.7586 29.6932 15.0722 29.5892 15.3955 29.5815C15.7174 29.5695 16.0355 29.655 16.3079 29.827C16.5803 29.999 16.7943 30.2494 16.9218 30.5453C17.7417 32.3895 19.1419 34.6499 21.1577 34.9451C24.8335 35.4774 31.2946 34.0672 31.3576 34.052C31.5189 34.021 31.686 34.0541 31.8232 34.1443C31.9605 34.2345 32.0571 34.3747 32.0926 34.5351C32.1281 34.6955 32.0996 34.8634 32.0133 35.0031C31.9269 35.1428 31.7894 35.2433 31.6301 35.2832C31.3576 35.3437 24.8814 36.7591 20.9761 36.1914C18.3901 35.8155 16.7175 33.1917 15.7689 31.0574C15.7424 30.9905 15.6954 30.9338 15.6347 30.8953C15.5739 30.8567 15.5026 30.8384 15.4308 30.8429C15.3564 30.8422 15.2836 30.865 15.2229 30.908C15.1622 30.951 15.1167 31.0122 15.0927 31.0826C13.8778 34.2469 13.2569 37.608 13.2611 40.9975C13.2611 41.502 13.2763 42.0445 13.3065 42.5894C13.3584 43.5138 13.4569 44.435 13.6017 45.3494C13.641 45.5956 13.7619 45.8214 13.9449 45.9906C14.1279 46.1599 14.3624 46.2628 14.6109 46.2829C16.7805 46.4771 21.6345 46.3636 29.7733 43.3942C29.8511 43.3659 29.9338 43.3531 30.0166 43.3568C30.0993 43.3604 30.1806 43.3803 30.2557 43.4153C30.3308 43.4503 30.3982 43.4998 30.4542 43.5609C30.5101 43.622 30.5535 43.6935 30.5819 43.7714C30.6102 43.8492 30.6229 43.9319 30.6193 44.0147C30.6156 44.0974 30.5958 44.1787 30.5607 44.2538C30.5257 44.3288 30.4762 44.3963 30.4151 44.4523C30.3541 44.5082 30.2825 44.5516 30.2047 44.5799C23.3677 47.07 18.7357 47.6023 16.0237 47.6023Z" fill="#7A7A7A" stroke="#7A7A7A"/>
<path d="M41 69.9952C37.4563 69.9984 33.9423 69.3494 30.6335 68.0804C30.3313 67.9657 30.0701 67.7636 29.8831 67.4999C29.6962 67.2361 29.5921 66.9227 29.584 66.5995C29.572 66.2775 29.6576 65.9595 29.8296 65.6871C30.0016 65.4147 30.2519 65.2007 30.5478 65.0731C32.392 64.2532 34.6525 62.853 34.9476 60.8373C35.48 57.1614 34.0697 50.7004 34.0545 50.6373C34.0235 50.476 34.0566 50.309 34.1468 50.1717C34.2371 50.0345 34.3772 49.9378 34.5376 49.9023C34.698 49.8668 34.8659 49.8953 35.0056 49.9817C35.1453 50.0681 35.2458 50.2055 35.2857 50.3649C35.3463 50.6373 36.7591 57.1135 36.1939 61.0189C35.818 63.6048 33.1943 65.2775 31.0599 66.2261C30.9933 66.2529 30.9367 66.3 30.8983 66.3606C30.8598 66.4213 30.8413 66.4924 30.8455 66.5642C30.8447 66.6386 30.8675 66.7113 30.9105 66.772C30.9536 66.8327 31.0147 66.8783 31.0851 66.9022C34.2494 68.1171 37.6105 68.7381 41 68.7338C41.5046 68.7338 42.047 68.7187 42.5919 68.6884C43.5163 68.6366 44.4375 68.5381 45.3519 68.3932C45.5961 68.3545 45.8205 68.2355 45.9895 68.055C46.1586 67.8745 46.2627 67.6429 46.2854 67.3967C46.3258 66.93 46.3459 66.4178 46.3434 65.883C46.3434 65.7159 46.4094 65.5556 46.5271 65.437C46.6448 65.3184 46.8045 65.2511 46.9716 65.2497C47.1385 65.2497 47.2985 65.3158 47.4167 65.4336C47.5349 65.5513 47.6017 65.7111 47.6023 65.8779C47.6023 66.4582 47.5847 67.0107 47.5393 67.5178C47.4913 68.0439 47.2692 68.5389 46.9083 68.9246C46.5473 69.3103 46.0679 69.5645 45.5462 69.6471C44.6052 69.7959 43.6339 69.8994 42.66 69.9549C42.0924 69.9776 41.5323 69.9952 41 69.9952Z" fill="#7A7A7A" stroke="#7A7A7A"/>
<path d="M45.8338 58.5944C45.6935 58.5942 45.5573 58.5472 45.4467 58.4608C45.3361 58.3744 45.2575 58.2537 45.2233 58.1176C44.7141 56.1275 44.1036 54.1647 43.3942 52.2368C43.3615 52.1583 43.3451 52.0739 43.3459 51.9888C43.3466 51.9037 43.3646 51.8197 43.3987 51.7417C43.4329 51.6638 43.4824 51.5935 43.5444 51.5352C43.6064 51.4769 43.6795 51.4317 43.7594 51.4024C43.8393 51.3731 43.9243 51.3603 44.0092 51.3647C44.0942 51.3691 44.1774 51.3907 44.2538 51.4281C44.3303 51.4655 44.3983 51.518 44.4539 51.5824C44.5096 51.6468 44.5516 51.7218 44.5774 51.8029C45.303 53.7716 45.9261 55.7766 46.4443 57.8098C46.4833 57.9707 46.4572 58.1404 46.3717 58.2822C46.2862 58.4239 46.1482 58.5261 45.9877 58.5667C45.9377 58.5822 45.886 58.5915 45.8338 58.5944Z" fill="#7A7A7A" stroke="#7A7A7A"/>
<path d="M66.5516 52.421C66.2375 52.4229 65.9298 52.3323 65.6669 52.1604C65.404 51.9886 65.1975 51.7432 65.0732 51.4547C64.2532 49.6105 62.853 47.35 60.8373 47.0549C57.1615 46.5225 50.7004 47.9328 50.6373 47.948C50.476 47.979 50.309 47.9459 50.1718 47.8557C50.0345 47.7655 49.9378 47.6253 49.9024 47.4649C49.8669 47.3045 49.8953 47.1366 49.9817 46.9969C50.0681 46.8572 50.2055 46.7567 50.3649 46.7168C50.6373 46.6563 57.111 45.2409 61.0189 45.8086C63.6049 46.1845 65.2775 48.8209 66.2286 50.9426C66.2554 51.0092 66.3025 51.0658 66.3631 51.1042C66.4238 51.1427 66.495 51.1612 66.5667 51.157C66.6411 51.1578 66.7139 51.135 66.7746 51.092C66.8353 51.049 66.8808 50.9878 66.9048 50.9174C68.1197 47.7531 68.7406 44.392 68.7364 41.0025C68.7364 40.4979 68.7212 39.9555 68.6909 39.4106C68.6391 38.4862 68.5406 37.565 68.3958 36.6506C68.357 36.4064 68.238 36.182 68.0575 36.013C67.8771 35.844 67.6455 35.7399 67.3992 35.7171C65.2296 35.5229 60.3756 35.6364 52.2368 38.6058C52.0796 38.663 51.9061 38.6554 51.7544 38.5847C51.6028 38.5139 51.4855 38.3859 51.4283 38.2286C51.371 38.0714 51.3786 37.8979 51.4494 37.7462C51.5201 37.5946 51.6482 37.4773 51.8054 37.4201C60.1738 34.3699 65.2397 34.2564 67.5128 34.4607C68.0388 34.5087 68.5339 34.7307 68.9196 35.0917C69.3052 35.4527 69.5595 35.932 69.6421 36.4538C69.7909 37.3948 69.8944 38.3661 69.9499 39.3399C69.9827 39.9076 69.9978 40.4677 69.9978 41.0025C70.001 44.5462 69.3519 48.0602 68.0829 51.369C67.9686 51.6714 67.7665 51.9328 67.5027 52.1198C67.2389 52.3068 66.9253 52.4108 66.602 52.4185L66.5516 52.421Z" fill="#7A7A7A" stroke="#7A7A7A"/>
<path d="M41 53.0467C37.8069 53.042 34.7461 51.7711 32.4887 49.5128C30.2313 47.2545 28.9617 44.1931 28.9584 41C28.9571 40.2113 29.0349 39.4244 29.1905 38.6512C29.6363 36.4144 30.7083 34.3502 32.2815 32.6989C33.8548 31.0475 35.8647 29.877 38.0773 29.3234C40.2899 28.7699 42.6143 28.8561 44.7798 29.5721C46.9453 30.288 48.863 31.6043 50.3096 33.3677C51.7561 35.131 52.6722 37.269 52.9511 39.5326C53.23 41.7963 52.8602 44.0927 51.8849 46.1544C50.9095 48.2162 49.3687 49.9585 47.4417 51.1787C45.5147 52.3988 43.2808 53.0466 41 53.0467ZM41 30.2147C38.8668 30.2143 36.7813 30.8464 35.0074 32.0312C33.2334 33.216 31.8506 34.9002 31.034 36.8709C30.2173 38.8416 30.0033 41.0102 30.4192 43.1025C30.835 45.1948 31.862 47.1168 33.3703 48.6254C34.8785 50.134 36.8003 51.1614 38.8925 51.5778C40.9847 51.9942 43.1533 51.7807 45.1242 50.9645C47.0951 50.1483 48.7797 48.7659 49.9649 46.9922C51.1501 45.2185 51.7827 43.1332 51.7827 41C51.7846 40.2951 51.7153 39.5919 51.5759 38.901C51.0884 36.454 49.7684 34.2514 47.8403 32.6678C45.9122 31.0842 43.4951 30.2174 41 30.2147Z" fill="#7A7A7A" stroke="#7A7A7A"/>
</svg>
